Coordinates
version=1
nRows=8
nColumns=40
inDegrees=yes

Units are S.I. units (second, meters, Newtons, ...)
If the header above contains a line with 'inDegrees', this indicates whether rotational values are in degrees (yes) or radians (no).

endheader
time	pelvis_tilt	pelvis_list	pelvis_rotation	pelvis_tx	pelvis_ty	pelvis_tz	hip_flexion_r	hip_adduction_r	hip_rotation_r	knee_angle_r	knee_angle_r_beta	ankle_angle_r	subtalar_angle_r	mtp_angle_r	hip_flexion_l	hip_adduction_l	hip_rotation_l	knee_angle_l	knee_angle_l_beta	ankle_angle_l	subtalar_angle_l	mtp_angle_l	lumbar_extension	lumbar_bending	lumbar_rotation	arm_flex_r	arm_add_r	arm_rot_r	elbow_flex_r	pro_sup_r	wrist_flex_r	wrist_dev_r	arm_flex_l	arm_add_l	arm_rot_l	elbow_flex_l	pro_sup_l	wrist_flex_l	wrist_dev_l
      4.62500000	     -1.12758533	      1.86089610	      1.91563716	     -0.38459218	      0.66889282	     -1.03873394	     63.72129033	     -2.73729159	      1.24465404	      5.83725419	      0.10187930	     -0.08385579	      0.00000000	      0.00000000	     57.78835060	      3.23576425	     -8.82895253	     96.91859376	      1.69154857	     30.64859273	      0.00000000	      0.00000000	    -18.71815908	     -3.43888447	     -0.19629892	     89.91763915	    -13.21583785	     11.90734484	     36.30453318	     75.78650657	      0.00000000	      0.00000000	     89.90708847	    -15.27466807	     14.27946770	     41.61367856	     80.52243670	      0.00000000	      0.00000000
      4.63000000	     -1.15553007	      1.82493885	      1.94855373	     -0.38458489	      0.66891130	     -1.03871865	     63.75959707	     -2.74912430	      1.22540164	      5.88024451	      0.10262963	     -0.01886640	      0.00000000	      0.00000000	     57.81981960	      3.16768760	     -8.83661656	     96.92797022	      1.69171222	     30.56561878	      0.00000000	      0.00000000	    -18.69494927	     -3.39977841	     -0.22135133	     89.91752378	    -13.21701028	     11.49879935	     36.23515943	     78.98362455	      0.00000000	      0.00000000	     89.90731901	    -15.25124157	     13.88066057	     41.59637331	     83.42682139	      0.00000000	      0.00000000
      4.63500000	     -1.12510934	      1.84654215	      1.97570776	     -0.38454098	      0.66901398	     -1.03879266	     63.73796073	     -2.82291704	      1.07442779	      5.86904083	      0.10243409	      0.02557550	      0.00000000	      0.00000000	     57.77590647	      3.21125764	     -8.84042146	     96.91747523	      1.69152905	     30.57378452	      0.00000000	      0.00000000	    -18.73366549	     -3.40887098	     -0.26453133	     89.91772829	    -13.21467636	     11.61644452	     36.25130292	     78.03943108	      0.00000000	      0.00000000	     89.90697134	    -15.24087291	     13.83765257	     41.57751045	     83.68493450	      0.00000000	      0.00000000
      4.64000000	     -1.15092656	      1.83254348	      1.82967455	     -0.38444054	      0.66898148	     -1.03840062	     63.74913027	     -2.63320988	      1.42286563	      5.78851511	      0.10102865	     -0.31045813	      0.00000000	      0.00000000	     57.77707501	      3.01044255	     -8.93632677	     96.93761786	      1.69188060	     30.59799571	      0.00000000	      0.00000000	    -18.68827257	     -3.46054423	     -0.12296439	     89.91763130	    -13.23958298	     11.55432541	     36.20209044	     79.20758267	      0.00000000	      0.00000000	     89.90712209	    -15.22592279	     13.85082062	     41.57956945	     83.39557712	      0.00000000	      0.00000000
      4.64500000	     -1.17224872	      1.84550586	      1.87830402	     -0.38438613	      0.66900127	     -1.03854618	     63.79062651	     -2.72058633	      1.30038961	      5.81743754	      0.10153344	     -0.18067114	      0.00000000	      0.00000000	     57.78537104	      3.06468828	     -8.94282646	     96.91687363	      1.69151855	     30.62138726	      0.00000000	      0.00000000	    -18.66500912	     -3.45691540	     -0.17003308	     89.91746619	    -13.23358083	     11.50844148	     36.17876609	     79.03168159	      0.00000000	      0.00000000	     89.90708299	    -15.21326070	     13.84814736	     41.58584857	     83.40271341	      0.00000000	      0.00000000
      4.65000000	     -1.14275877	      1.79746703	      1.86700735	     -0.38437060	      0.66914620	     -1.03847126	     63.71498358	     -2.67657573	      1.41205008	      5.73539330	      0.10010150	     -0.32944542	      0.00000000	      0.00000000	     57.73750566	      2.99649748	     -8.91731861	     96.90523460	      1.69131541	     30.62185619	      0.00000000	      0.00000000	    -18.69890127	     -3.41339458	     -0.15142410	     89.91756741	    -13.24127523	     11.78583509	     36.21550378	     77.18096316	      0.00000000	      0.00000000	     89.90706184	    -15.22893121	     14.13331930	     41.64623983	     81.13042575	      0.00000000	      0.00000000
      4.65500000	     -1.15431059	      1.81491410	      2.05967669	     -0.38441328	      0.66922823	     -1.03897973	     63.68830843	     -2.90160940	      1.44691439	      5.65890704	      0.09876656	     -0.38223877	      0.00000000	      0.00000000	     57.75209266	      3.21393854	     -8.83355695	     96.86077359	      1.69053942	     30.60196625	      0.00000000	      0.00000000	    -18.70488959	     -3.35087278	     -0.31796424	     89.91758214	    -13.29516926	     12.10838748	     36.28818115	     75.13840172	      0.00000000	      0.00000000	     89.90710796	    -15.21263293	     14.40293634	     41.70091944	     78.95497344	      0.00000000	      0.00000000
      4.66000000	     -1.16117752	      1.83142418	      1.85560284	     -0.38430768	      0.66923703	     -1.03852675	     63.70213981	     -2.70765247	      1.58419922	      5.55186481	      0.09689832	     -0.65596980	      0.00000000	      0.00000000	     57.73999869	      3.01305868	     -8.96175419	     96.88719236	      1.69100051	     30.59798144	      0.00000000	      0.00000000	    -18.68610836	     -3.44121304	     -0.13370041	     89.91756224	    -13.29584918	     12.18850626	     36.26860865	     74.52466115	      0.00000000	      0.00000000	     89.90722633	    -15.22555239	     14.43788171	     41.72096547	     78.39808730	      0.00000000	      0.00000000
